<?xml version="1.0" encoding="UTF-8"?>
<svg version="1.1" xmlns="http://www.w3.org/2000/svg" width="164" height="50">
<path d="M0 0 C3.1875 0.625 3.1875 0.625 5.1875 2.625 C6.01649624 9.49382601 4.26085597 13.15506483 0.1875 18.625 C1.095 19.016875 2.0025 19.40875 2.9375 19.8125 C6.32868394 21.7037372 7.97782837 23.4804673 10.1875 26.625 C11.5075 24.645 12.8275 22.665 14.1875 20.625 C16.1675 21.12 16.1675 21.12 18.1875 21.625 C17.8575 22.945 17.5275 24.265 17.1875 25.625 C20.91965457 25.625 21.93432911 24.24379818 24.63671875 21.86328125 C26.65609718 20.25083047 28.76294203 19.47687172 31.1875 18.625 C32.1775 17.965 33.1675 17.305 34.1875 16.625 C36.94770996 16.25332816 39.37602476 16.44649364 42.1875 16.625 C44.3260485 18.7635485 44.61405063 19.75775314 45.1875 22.625 C46.115625 22.563125 47.04375 22.50125 48 22.4375 C51.1875 22.625 51.1875 22.625 53.0625 24.125 C53.619375 24.8675 53.619375 24.8675 54.1875 25.625 C55.8375 23.975 57.4875 22.325 59.1875 20.625 C59.8475 20.955 60.5075 21.285 61.1875 21.625 C60.6925 23.11 60.6925 23.11 60.1875 24.625 C63.1575 24.295 66.1275 23.965 69.1875 23.625 C69.1875 24.615 69.1875 25.605 69.1875 26.625 C67.2075 26.955 65.2275 27.285 63.1875 27.625 C63.1875 28.615 63.1875 29.605 63.1875 30.625 C60.61536866 32.24449011 59.51080841 32.66908751 56.4375 32.25 C55.695 32.04375 54.9525 31.8375 54.1875 31.625 C54.1875 30.965 54.1875 30.305 54.1875 29.625 C53.548125 29.33625 52.90875 29.0475 52.25 28.75 C50.1875 27.625 50.1875 27.625 49.1875 25.625 C48.28 26.264375 47.3725 26.90375 46.4375 27.5625 C43.79528619 29.23928953 42.1976501 30.16189998 39.1875 30.625 C39.22875 31.40875 39.27 32.1925 39.3125 33 C39.1875 35.625 39.1875 35.625 37.1875 37.625 C33.01027547 37.96739545 30.26048509 38.05419404 26.375 36.5 C23.68342712 34.19293753 22.55566353 31.86538731 21.1875 28.625 C20.259375 28.975625 19.33125 29.32625 18.375 29.6875 C15.1875 30.625 15.1875 30.625 12.1875 29.625 C11.135625 30.7078125 11.135625 30.7078125 10.0625 31.8125 C3.12671521 38.68967252 -2.04679412 41.90549612 -12 41.9375 C-13.21042969 41.95425781 -14.42085937 41.97101562 -15.66796875 41.98828125 C-18.8125 41.625 -18.8125 41.625 -20.7578125 40.2734375 C-21.8125 38.625 -21.8125 38.625 -21.5 35.9375 C-21.273125 35.174375 -21.04625 34.41125 -20.8125 33.625 C-18.8325 33.13 -18.8325 33.13 -16.8125 32.625 C-17.1425 30.975 -17.4725 29.325 -17.8125 27.625 C-18.4725 27.625 -19.1325 27.625 -19.8125 27.625 C-20.1425 28.945 -20.4725 30.265 -20.8125 31.625 C-23.1225 31.955 -25.4325 32.285 -27.8125 32.625 C-28.8125 30.625 -28.8125 30.625 -28.8125 28.625 C-29.4725 28.625 -30.1325 28.625 -30.8125 28.625 C-30.91046875 29.57761719 -31.0084375 30.53023437 -31.109375 31.51171875 C-31.25890625 32.76597656 -31.4084375 34.02023438 -31.5625 35.3125 C-31.70171875 36.55386719 -31.8409375 37.79523437 -31.984375 39.07421875 C-32.87987746 42.91389673 -34.1394021 44.7834752 -36.8125 47.625 C-41.6875 46.75 -41.6875 46.75 -42.8125 45.625 C-43.31316777 42.12032564 -43.40948759 39.61324407 -41.54296875 36.5234375 C-40.49801819 35.16576451 -39.42469406 33.82931711 -38.3203125 32.51953125 C-36.82146498 30.63626428 -35.80963824 28.80805509 -34.8125 26.625 C-35.4621875 27.6459375 -35.4621875 27.6459375 -36.125 28.6875 C-39.92821798 31.42935482 -42.66222095 30.55958848 -47.15625 29.88671875 C-49.71996627 29.63411729 -51.38820437 29.83024271 -53.8125 30.625 C-54.4725 29.305 -55.1325 27.985 -55.8125 26.625 C-53.625 24.0625 -53.625 24.0625 -50.8125 21.625 C-48 21.8125 -48 21.8125 -45.8125 22.625 C-45.4825 23.945 -45.1525 25.265 -44.8125 26.625 C-44.1525 26.625 -43.4925 26.625 -42.8125 26.625 C-42.1525 25.305 -41.4925 23.985 -40.8125 22.625 C-40.1525 23.285 -39.4925 23.945 -38.8125 24.625 C-37.8225 23.965 -36.8325 23.305 -35.8125 22.625 C-33.6875 22.875 -33.6875 22.875 -31.8125 23.625 C-31.4825 24.285 -31.1525 24.945 -30.8125 25.625 C-29.884375 24.965 -28.95625 24.305 -28 23.625 C-24.8125 21.625 -24.8125 21.625 -21.8125 21.625 C-22.3075 23.11 -22.3075 23.11 -22.8125 24.625 C-20.8325 24.625 -18.8525 24.625 -16.8125 24.625 C-16.874375 23.573125 -16.93625 22.52125 -17 21.4375 C-17.03302363 15.32812877 -15.31853532 9.50570933 -13.8125 3.625 C-12.8225 3.625 -11.8325 3.625 -10.8125 3.625 C-10.8125 5.275 -10.8125 6.925 -10.8125 8.625 C-10.17634766 7.75875 -10.17634766 7.75875 -9.52734375 6.875 C-4.70598068 0.77147224 -4.70598068 0.77147224 0 0 Z M-7.390625 8.375 C-11.90033497 15.51124434 -13.45116082 23.29613185 -13.8125 31.625 C-11.60444476 31.6794452 -9.39599446 31.71799283 -7.1875 31.75 C-5.34285156 31.78480469 -5.34285156 31.78480469 -3.4609375 31.8203125 C0.13066041 31.6280428 2.85411175 30.92758556 6.1875 29.625 C5.91715366 27.18782742 5.91715366 27.18782742 5.1875 24.625 C1.76655758 22.34437172 0.50562778 22.40574993 -3.5 22.5 C-4.49386719 22.51804687 -5.48773438 22.53609375 -6.51171875 22.5546875 C-7.27097656 22.57789062 -8.03023437 22.60109375 -8.8125 22.625 C-8.8125 21.635 -8.8125 20.645 -8.8125 19.625 C-8.22855469 19.53605469 -7.64460938 19.44710938 -7.04296875 19.35546875 C-2.81266609 17.97006315 -0.28596127 14.18262933 2.1875 10.625 C3.30679699 7.3740834 3.30679699 7.3740834 3.1875 4.625 C2.15282839 3.41307235 2.15282839 3.41307235 0 3.125 C-3.8020751 3.80092446 -5.05747936 5.39242207 -7.390625 8.375 Z M-12.8125 10.625 C-11.8125 12.625 -11.8125 12.625 -11.8125 12.625 Z M32.1875 20.625 C32.1875 21.285 32.1875 21.945 32.1875 22.625 C33.1775 22.955 34.1675 23.285 35.1875 23.625 C36.1775 21.975 37.1675 20.325 38.1875 18.625 C35.00259993 18.3476499 35.00259993 18.3476499 32.1875 20.625 Z M37.1875 22.625 C37.5175 24.275 37.8475 25.925 38.1875 27.625 C39.5075 26.965 40.8275 26.305 42.1875 25.625 C42.1875 23.645 42.1875 21.665 42.1875 19.625 C40.21927114 19.625 38.68221455 21.46780164 37.1875 22.625 Z M25.1875 23.625 C28.28987477 28.34060965 30.7960556 29.30257024 36.1875 30.625 C36.5175 31.285 36.8475 31.945 37.1875 32.625 C36.85216723 29.60700506 36.32184402 27.81618187 34.5625 25.3125 C31.35465428 23.0332412 29.03029789 23.32940016 25.1875 23.625 Z M-50.8125 24.625 C-51.8025 26.11 -51.8025 26.11 -52.8125 27.625 C-51.4925 26.965 -50.1725 26.305 -48.8125 25.625 C-49.4725 25.295 -50.1325 24.965 -50.8125 24.625 Z M24.1875 27.625 C25.44323244 31.4968417 26.55558079 33.65338671 30.1875 35.625 C32.85511764 35.87624826 32.85511764 35.87624826 35.1875 35.625 C34.16994259 32.96369601 33.52065139 31.81983944 31.0234375 30.359375 C30.21132812 30.03453125 29.39921875 29.7096875 28.5625 29.375 C27.74523437 29.03984375 26.92796875 28.7046875 26.0859375 28.359375 C25.45945312 28.11703125 24.83296875 27.8746875 24.1875 27.625 Z M-34.8125 32.625 C-39.23343655 37.4168964 -39.23343655 37.4168964 -40.8125 43.625 C-39.4925 43.955 -38.1725 44.285 -36.8125 44.625 C-36.28059459 43.19156 -35.76234742 41.75304633 -35.25 40.3125 C-34.95996094 39.51199219 -34.66992188 38.71148437 -34.37109375 37.88671875 C-33.56334375 35.4816826 -33.56334375 35.4816826 -34.8125 32.625 Z M-7.5625 34.0625 C-8.73296875 34.16433594 -9.9034375 34.26617187 -11.109375 34.37109375 C-12.00140625 34.45488281 -12.8934375 34.53867187 -13.8125 34.625 C-14.1425 36.275 -14.4725 37.925 -14.8125 39.625 C-7.81245111 39.33811275 -2.90223134 38.12095688 3.1875 34.625 C-0.49650584 33.39395845 -3.72724976 33.71732748 -7.5625 34.0625 Z M-18.8125 35.625 C-18.4825 36.615 -18.1525 37.605 -17.8125 38.625 C-17.1525 38.295 -16.4925 37.965 -15.8125 37.625 C-16.1425 36.965 -16.4725 36.305 -16.8125 35.625 C-17.4725 35.625 -18.1325 35.625 -18.8125 35.625 Z " fill="#603C2A" transform="translate(93.8125,2.375)"/>
<path d="M0 0 C4.75 0.75 4.75 0.75 7 3 C9.30631464 11.3929044 7.68427079 21.44326231 3.94140625 29.19140625 C2.78232061 30.95338625 1.49238856 32.50761144 0 34 C-1.99958364 34.04080783 -4.00045254 34.04254356 -6 34 C-9.20578207 28.60845743 -10.06898067 23.15568076 -11 17 C-11.31453125 18.01320313 -11.6290625 19.02640625 -11.953125 20.0703125 C-12.3849244 21.42203235 -12.81724388 22.77358614 -13.25 24.125 C-13.45496094 24.79015625 -13.65992187 25.4553125 -13.87109375 26.140625 C-15.4281572 30.95336657 -17.35472416 35.35472416 -21 39 C-23.375 39.3125 -23.375 39.3125 -26 39 C-31.01356873 33.98643127 -30.18293502 27.35096441 -30.1875 20.75 C-30.19974609 19.83347656 -30.21199219 18.91695312 -30.22460938 17.97265625 C-30.23675949 12.29450324 -29.61728004 7.44633436 -28 2 C-27.01 2 -26.02 2 -25 2 C-25.16242187 2.92554688 -25.32484375 3.85109375 -25.4921875 4.8046875 C-26.21790181 9.90007382 -26.14552101 14.98790803 -26.125 20.125 C-26.12886719 21.10082031 -26.13273437 22.07664062 -26.13671875 23.08203125 C-26.13542969 24.02691406 -26.13414063 24.97179687 -26.1328125 25.9453125 C-26.13168457 26.79625488 -26.13055664 27.64719727 -26.12939453 28.52392578 C-25.99481461 31.09922685 -25.56573332 33.48706542 -25 36 C-22.48023677 35.02359175 -21.24027185 34.41880719 -19.875 32.0390625 C-19.441875 30.84410156 -19.441875 30.84410156 -19 29.625 C-18.67128906 28.74070312 -18.34257812 27.85640625 -18.00390625 26.9453125 C-16.59520379 22.81238777 -15.28299164 18.65065027 -14.02734375 14.46875 C-13 12 -13 12 -10 10 C-7.15205956 12.84794044 -7.07423248 16.10699824 -6.4375 19.9375 C-5.49954476 25.53371404 -5.49954476 25.53371404 -4 31 C-2.01979579 30.55966008 -2.01979579 30.55966008 0 29 C3.65074987 22.07944808 4.2519084 14.68320621 4 7 C3.24849977 3.72226496 3.24849977 3.72226496 0 2 C0 1.34 0 0.68 0 0 Z " fill="#603C2A" transform="translate(31,5)"/>
</svg>
